<svg width="30" height="30" viewBox="0 0 30 30" fill="none" xmlns="http://www.w3.org/2000/svg">
<path d="M11.6667 5.83333L17.5 5.83333C17.5 5.05978 17.1927 4.31792 16.6457 3.77094C16.0987 3.22396 15.3569 2.91667 14.5833 2.91667C13.8098 2.91667 13.0679 3.22396 12.5209 3.77094C11.974 4.31792 11.6667 5.05978 11.6667 5.83333ZM8.75 5.83333C8.75 4.28624 9.36458 2.80251 10.4585 1.70854C11.5525 0.614582 13.0362 -4.61052e-10 14.5833 -5.1577e-10C16.1304 -5.70485e-10 17.6142 0.614582 18.7081 1.70854C19.8021 2.80251 20.4167 4.28624 20.4167 5.83333L27.7083 5.83333C28.0951 5.83333 28.466 5.98698 28.7395 6.26047C29.013 6.53396 29.1667 6.90489 29.1667 7.29167C29.1667 7.67844 29.013 8.04937 28.7395 8.32286C28.466 8.59635 28.0951 8.75 27.7083 8.75L26.4221 8.75L25.13 23.8292C25.0058 25.2853 24.3395 26.6417 23.2631 27.6301C22.1867 28.6185 20.7785 29.1668 19.3171 29.1667L9.84958 29.1667C8.3882 29.1668 6.97998 28.6185 5.90355 27.6301C4.82712 26.6417 4.16088 25.2853 4.03667 23.8292L2.74458 8.75L1.45833 8.75C1.07156 8.75 0.700626 8.59635 0.427136 8.32286C0.153645 8.04937 2.17719e-10 7.67844 2.06751e-10 7.29167C1.95785e-10 6.90489 0.153645 6.53396 0.427136 6.26047C0.700626 5.98698 1.07156 5.83333 1.45833 5.83333L8.75 5.83333ZM18.9583 14.5833C18.9583 14.1966 18.8047 13.8256 18.5312 13.5521C18.2577 13.2786 17.8868 13.125 17.5 13.125C17.1132 13.125 16.7423 13.2786 16.4688 13.5521C16.1953 13.8256 16.0417 14.1966 16.0417 14.5833L16.0417 20.4167C16.0417 20.8034 16.1953 21.1744 16.4688 21.4479C16.7423 21.7214 17.1132 21.875 17.5 21.875C17.8868 21.875 18.2577 21.7214 18.5312 21.4479C18.8047 21.1744 18.9583 20.8034 18.9583 20.4167L18.9583 14.5833ZM11.6667 13.125C11.2799 13.125 10.909 13.2786 10.6355 13.5521C10.362 13.8256 10.2083 14.1966 10.2083 14.5833L10.2083 20.4167C10.2083 20.8034 10.362 21.1744 10.6355 21.4479C10.909 21.7214 11.2799 21.875 11.6667 21.875C12.0534 21.875 12.4244 21.7214 12.6979 21.4479C12.9714 21.1744 13.125 20.8034 13.125 20.4167L13.125 14.5833C13.125 14.1966 12.9714 13.8256 12.6979 13.5521C12.4244 13.2786 12.0534 13.125 11.6667 13.125Z" fill="#FF407B"/>
</svg>
