<svg width="600" height="600" viewBox="0 0 600 600" fill="none" xmlns="http://www.w3.org/2000/svg">
<path d="M600 458.878H0V459.178H600V458.878Z" fill="#EBEBEB"/>
<path d="M539.881 478.193H513.866V478.493H539.881V478.193Z" fill="#EBEBEB"/>
<path d="M413.6 471.967H372.67V472.267H413.6V471.967Z" fill="#EBEBEB"/>
<path d="M529.333 467.05H475.903V467.35H529.333V467.05Z" fill="#EBEBEB"/>
<path d="M207.618 473.1H194.252V473.4H207.618V473.1Z" fill="#EBEBEB"/>
<path d="M183.569 473.1H137.502V473.4H183.569V473.1Z" fill="#EBEBEB"/>
<path d="M112.802 468.034H79.5684V468.334H112.802V468.034Z" fill="#EBEBEB"/>
<path d="M284.417 405.36H52.698C48.9216 405.36 45.8484 402.287 45.8484 398.51V72.792C45.8484 69.0156 48.9216 65.9424 52.698 65.9424H284.417C288.192 65.9424 291.265 69.0156 291.265 72.792V398.51C291.265 402.287 288.192 405.36 284.417 405.36ZM52.698 66.2436C49.086 66.2436 46.1484 69.1812 46.1484 72.7932V398.512C46.1484 402.124 49.086 405.061 52.698 405.061H284.417C288.028 405.061 290.965 402.124 290.965 398.512V72.792C290.965 69.1812 288.028 66.2424 284.417 66.2424L52.698 66.2436Z" fill="#EBEBEB"/>
<path d="M543.972 405.36H312.254C308.478 405.36 305.406 402.287 305.406 398.51V72.792C305.406 69.0156 308.479 65.9424 312.254 65.9424H543.972C547.75 65.9424 550.822 69.0156 550.822 72.792V398.51C550.823 402.287 547.75 405.36 543.972 405.36ZM312.254 66.2436C308.644 66.2436 305.706 69.1812 305.706 72.7932V398.512C305.706 402.124 308.644 405.061 312.254 405.061H543.972C547.584 405.061 550.522 402.124 550.522 398.512V72.792C550.522 69.1812 547.584 66.2424 543.972 66.2424L312.254 66.2436Z" fill="#EBEBEB"/>
<path d="M137.974 209.552C151.832 209.552 163.067 198.318 163.067 184.459C163.067 170.6 151.832 159.366 137.974 159.366H134.896V209.551L137.974 209.552Z" fill="#E0E0E0"/>
<path d="M134.896 209.552C148.754 209.552 159.989 198.318 159.989 184.459C159.989 170.601 148.754 159.366 134.896 159.366C121.037 159.366 109.802 170.601 109.802 184.459C109.802 198.318 121.037 209.552 134.896 209.552Z" fill="#F5F5F5"/>
<path d="M133.746 187.613C115.225 187.613 100.157 172.544 100.157 154.024V133.955C100.157 132.212 101.569 130.801 103.31 130.801C105.052 130.801 106.464 132.214 106.464 133.955V154.024C106.464 169.067 118.703 181.304 133.745 181.304C135.486 181.304 136.898 182.717 136.898 184.458C136.898 186.199 135.487 187.613 133.746 187.613Z" fill="#E0E0E0"/>
<path d="M75.3984 151.624H131.224C135.049 151.624 137.838 148.001 136.859 144.302L132.017 126.02C131.34 123.464 129.026 121.684 126.383 121.684H80.2416C77.5968 121.684 75.2844 123.463 74.6076 126.02L69.7656 144.302C68.784 148 71.5728 151.624 75.3984 151.624Z" fill="#F5F5F5"/>
<path d="M492.332 209.552C506.191 209.552 517.426 198.318 517.426 184.459C517.426 170.6 506.191 159.366 492.332 159.366H489.254V209.551L492.332 209.552Z" fill="#E0E0E0"/>
<path d="M489.254 209.552C503.113 209.552 514.348 198.318 514.348 184.459C514.348 170.601 503.113 159.366 489.254 159.366C475.396 159.366 464.161 170.601 464.161 184.459C464.161 198.318 475.396 209.552 489.254 209.552Z" fill="#F5F5F5"/>
<path d="M488.105 187.613C469.584 187.613 454.516 172.544 454.516 154.024V133.955C454.516 132.212 455.928 130.801 457.669 130.801C459.412 130.801 460.823 132.214 460.823 133.955V154.024C460.823 169.067 473.062 181.304 488.104 181.304C489.846 181.304 491.257 182.717 491.257 184.458C491.257 186.199 489.846 187.613 488.105 187.613Z" fill="#E0E0E0"/>
<path d="M429.757 151.624H485.582C489.408 151.624 492.197 148.001 491.216 144.302L486.374 126.02C485.698 123.464 483.384 121.684 480.74 121.684H434.599C431.954 121.684 429.642 123.463 428.965 126.02L424.123 144.302C423.143 148 425.932 151.624 429.757 151.624Z" fill="#F5F5F5"/>
<path d="M160.777 379.024H179.026V308.308H160.777V379.024Z" fill="#E6E6E6"/>
<path d="M111.301 379.024H171.865L181.012 296.256H120.448L111.301 379.024Z" fill="#F0F0F0"/>
<path d="M104.742 379.024H167.299L176.446 296.256H113.888L104.742 379.024Z" fill="#F5F5F5"/>
<path d="M162.78 372.502L170.484 302.779H118.408L110.704 372.502H162.78Z" fill="white"/>
<path d="M152.024 355.602L152.339 352.76C154.272 335.268 143.351 319.679 129.163 319.679L128.849 322.52C126.916 340.012 137.838 355.602 152.024 355.602Z" fill="#F5F5F5"/>
<path d="M70.9005 458.878H124.707L124.707 379.024H70.9005V458.878Z" fill="#E6E6E6"/>
<path d="M76.3128 458.878H70.9008V443.483H81.9876L76.3128 458.878Z" fill="#F0F0F0"/>
<path d="M221.704 458.878H275.51V379.024H221.704V458.878Z" fill="#E6E6E6"/>
<path d="M70.9006 449.432H226.428V379.024H70.9006V449.432Z" fill="#F0F0F0"/>
<path d="M221.016 458.878H226.428V443.483H215.341L221.016 458.878Z" fill="#F0F0F0"/>
<path d="M75.0994 411.838H222.229V383.428H75.0994V411.838Z" fill="#E6E6E6"/>
<path d="M138.852 401.95H158.476C166.999 401.95 175.148 398.444 181.01 392.257H116.316C122.179 398.444 130.328 401.95 138.852 401.95Z" fill="#F0F0F0"/>
<path d="M75.0994 444.839H222.229V416.429H75.0994V444.839Z" fill="#E6E6E6"/>
<path d="M138.852 434.951H158.476C166.999 434.951 175.148 431.446 181.01 425.258H116.316C122.179 431.446 130.328 434.951 138.852 434.951Z" fill="#F0F0F0"/>
<path d="M216.576 375.767H217.966C217.951 372.904 217.973 365.64 218.112 348.992C218.362 318.82 218.842 316.98 218.842 316.98L215.532 330.91C213.433 346.334 216.138 361.834 216.576 375.767Z" fill="#E6E6E6"/>
<path d="M213.828 328.835C209.064 323.158 198.887 321.505 188.466 320.092C184.375 319.537 199.217 328.885 206.471 335.526C212.106 340.684 215.71 342.109 217.256 347.25C218.063 340.838 217.932 333.726 213.828 328.835Z" fill="#E6E6E6"/>
<path d="M220.147 338.982C224.91 333.305 235.088 331.651 245.509 330.239C249.6 329.684 234.758 339.032 227.504 345.673C221.869 350.831 218.266 352.256 216.719 357.397C215.911 350.987 216.042 343.874 220.147 338.982Z" fill="#E6E6E6"/>
<path d="M218.107 315.646C221.678 308.86 230.666 302.471 240.751 300.047C244.71 299.095 231.58 312.577 226.589 321.271C222.712 328.025 217.57 335.958 216.77 341.657C215.564 330.367 214.536 322.432 218.107 315.646Z" fill="#E6E6E6"/>
<path d="M217.686 379.024C213.431 379.024 209.915 376.891 209.67 374.162L208.961 369.5H226.41L225.701 374.162C225.457 376.891 221.941 379.024 217.686 379.024Z" fill="#F0F0F0"/>
<path d="M227.54 371.294H207.832L207.266 366.1H228.104L227.54 371.294Z" fill="#F0F0F0"/>
<path d="M203.448 272.068H395.695V96.7099L203.448 96.7099L203.448 272.068Z" fill="#E6E6E6"/>
<path d="M199.122 272.068H393.816V96.7099L199.122 96.7099L199.122 272.068Z" fill="#F5F5F5"/>
<path d="M386.049 264.212L386.049 104.565L206.888 104.565L206.888 264.212H386.049Z" fill="#FAFAFA"/>
<path d="M364.066 264.212L293.551 104.566H269.6L340.115 264.212H364.066Z" fill="white"/>
<path d="M333.325 264.212L262.811 104.566H246.319L316.832 264.212H333.325Z" fill="white"/>
<path d="M273.412 264.214L273.412 104.566H264.147L264.147 264.214H273.412Z" fill="#E6E6E6"/>
<path d="M334.996 264.213L334.996 104.565H325.731L325.731 264.213H334.996Z" fill="#E6E6E6"/>
<path d="M271.741 269.197L271.741 98.7248H260.031L260.031 269.197H271.741Z" fill="#F5F5F5"/>
<path d="M333.325 269.196L333.325 98.7242H321.614L321.614 269.196H333.325Z" fill="#F5F5F5"/>
<path d="M207.712 264.212L207.712 104.565H206.887L206.887 264.212H207.712Z" fill="#E6E6E6"/>
<path d="M195.86 86.6076H404.138C404.689 86.6076 405.14 87.0588 405.14 87.6096C405.14 88.1604 404.689 88.6116 404.138 88.6116H195.86C195.31 88.6116 194.858 88.1604 194.858 87.6096C194.86 87.0576 195.31 86.6076 195.86 86.6076Z" fill="#E6E6E6"/>
<path d="M395.695 93.2172C396.439 93.2172 397.048 92.6088 397.048 91.8648V88.9608C397.048 88.2168 396.439 87.6084 395.695 87.6084C394.951 87.6084 394.343 88.2168 394.343 88.9608V91.8648C394.343 92.6088 394.951 93.2172 395.695 93.2172Z" fill="#E6E6E6"/>
<path d="M210.965 93.2172C211.709 93.2172 212.317 92.6088 212.317 91.8648V88.9608C212.317 88.2168 211.709 87.6084 210.965 87.6084C210.221 87.6084 209.612 88.2168 209.612 88.9608V91.8648C209.614 92.6088 210.222 93.2172 210.965 93.2172Z" fill="#E6E6E6"/>
<path opacity="0.6" d="M196.181 224.934L390.732 224.934V87.6092L196.181 87.6092L196.181 224.934Z" fill="#E0E0E0"/>
<path d="M408.343 340.406H374.802C371.234 340.406 368.344 337.514 368.344 333.948V318.424C368.344 314.856 371.236 311.965 374.802 311.965H408.343C411.911 311.965 414.802 314.857 414.802 318.424V333.948C414.802 337.514 411.91 340.406 408.343 340.406Z" fill="#FAFAFA"/>
<path d="M412.633 312.802H370.512C369.314 312.802 368.344 311.831 368.344 310.633V308.879C368.344 307.681 369.314 306.71 370.512 306.71H412.633C413.831 306.71 414.802 307.681 414.802 308.879V310.633C414.802 311.831 413.831 312.802 412.633 312.802Z" fill="#E6E6E6"/>
<path d="M369.028 371.946C369.028 371.946 369.636 391.942 392.94 391.942C416.244 391.942 416.852 371.946 416.852 371.946H369.028Z" fill="#F0F0F0"/>
<path d="M422.165 371.946C422.165 371.946 422.773 391.942 446.077 391.942C469.381 391.942 469.99 371.946 469.99 371.946H422.165Z" fill="#F0F0F0"/>
<path d="M458.458 340.406H412.364C407.462 340.406 403.489 336.433 403.489 331.53V307.958C403.489 303.056 407.462 299.083 412.364 299.083H458.458C463.36 299.083 467.333 303.058 467.333 307.958V331.53C467.333 336.432 463.36 340.406 458.458 340.406Z" fill="#F0F0F0"/>
<path d="M464.353 300.233H406.469C404.824 300.233 403.489 298.898 403.489 297.253V294.842C403.489 293.197 404.824 291.863 406.469 291.863H464.353C465.998 291.863 467.333 293.197 467.333 294.842V297.253C467.333 298.9 466 300.233 464.353 300.233Z" fill="#F5F5F5"/>
<path d="M351.476 458.877H357.521V359.706H351.476V458.877Z" fill="#E6E6E6"/>
<path d="M526.102 340.406H493.354V359.706H526.102V340.406Z" fill="#E6E6E6"/>
<path d="M330.535 359.706H493.352V340.406H330.535V359.706Z" fill="#F5F5F5"/>
<path d="M526.102 391.942H493.354V411.241H526.102V391.942Z" fill="#E6E6E6"/>
<path d="M330.535 411.242H493.352V391.942H330.535V411.242Z" fill="#F5F5F5"/>
<path d="M514.293 458.877H520.338V359.706H514.293V458.877Z" fill="#E6E6E6"/>
<path d="M487.308 458.877H493.353V359.706H487.308V458.877Z" fill="#F5F5F5"/>
<path d="M330.536 458.877H336.581V359.706H330.536V458.877Z" fill="#F5F5F5"/>
<path d="M300 513.073C428.498 513.073 532.667 506.99 532.667 499.486C532.667 491.981 428.498 485.898 300 485.898C171.502 485.898 67.3332 491.981 67.3332 499.486C67.3332 506.99 171.502 513.073 300 513.073Z" fill="#F5F5F5"/>
<path d="M312.497 438.595H159.408C154.35 438.595 150.038 434.495 149.778 429.437L136.076 163.576C135.816 158.518 139.705 154.417 144.763 154.417H297.852C302.91 154.417 307.222 158.518 307.482 163.576L321.184 429.437C321.444 434.495 317.555 438.595 312.497 438.595Z" fill="#407BFF"/>
<path opacity="0.8" d="M312.497 438.595H159.408C154.35 438.595 150.038 434.495 149.778 429.437L136.076 163.576C135.816 158.518 139.705 154.417 144.763 154.417H297.852C302.91 154.417 307.222 158.518 307.482 163.576L321.184 429.437C321.444 434.495 317.555 438.595 312.497 438.595Z" fill="white"/>
<path d="M282.742 145.746H265.808V146.946H282.742V145.746Z" fill="#407BFF"/>
<path d="M259.943 145.746H253.742V146.946H259.943V145.746Z" fill="#407BFF"/>
<path d="M319.079 421.733H172.666C167.828 421.733 163.704 417.811 163.456 412.974L150.352 158.705C150.102 153.868 153.822 149.946 158.659 149.946H305.074C309.911 149.946 314.035 153.868 314.284 158.705L327.388 412.974C327.636 417.811 323.916 421.733 319.079 421.733Z" fill="#407BFF"/>
<path d="M319.079 415.883H172.666C170.959 415.883 169.386 414.383 169.297 412.673L156.193 158.404C156.146 157.476 156.521 156.876 156.844 156.536C157.164 156.198 157.74 155.796 158.66 155.796H305.074C306.78 155.796 308.354 157.296 308.443 159.006L321.547 413.275C321.594 414.204 321.22 414.804 320.897 415.144C320.574 415.481 319.998 415.883 319.079 415.883ZM158.658 156.096C157.844 156.096 157.339 156.448 157.06 156.743C156.778 157.04 156.45 157.567 156.492 158.388L169.596 412.657C169.676 414.215 171.11 415.583 172.664 415.583H319.078C319.891 415.583 320.395 415.231 320.676 414.936C320.958 414.638 321.287 414.112 321.245 413.29L308.141 159.02C308.06 157.462 306.626 156.095 305.071 156.095H158.658V156.096Z" fill="white"/>
<path opacity="0.3" d="M267.88 248.456C284.53 231.37 283.443 203.308 265.454 185.779C247.464 168.249 219.384 167.889 202.734 184.975C186.085 202.062 187.171 230.123 205.16 247.653C223.15 265.183 251.23 265.543 267.88 248.456Z" fill="white"/>
<path d="M271.168 216.737C271.487 222.93 270.216 228.744 267.714 233.818C262.241 244.994 250.788 252.596 237.155 252.596C223.522 252.596 211.285 244.994 204.66 233.818C201.636 228.744 199.765 222.93 199.446 216.737C198.425 196.928 213.65 180.876 233.458 180.876C253.265 180.876 270.146 196.928 271.168 216.737Z" fill="white"/>
<path d="M267.714 233.818C262.241 244.994 250.788 252.596 237.155 252.596C223.522 252.596 211.285 244.994 204.66 233.818C213.377 227.786 224.029 224.266 235.694 224.266C247.36 224.266 258.376 227.788 267.714 233.818Z" fill="#407BFF"/>
<path d="M246.414 215.889C252.415 209.731 252.023 199.618 245.54 193.3C239.056 186.983 228.936 186.853 222.936 193.011C216.936 199.168 217.327 209.282 223.81 215.599C230.294 221.917 240.414 222.047 246.414 215.889Z" fill="#407BFF"/>
<path d="M298.096 322.825H183.455C181.408 322.825 179.663 321.166 179.557 319.118L178.688 302.273C178.583 300.226 180.157 298.566 182.204 298.566H296.845C298.892 298.566 300.637 300.226 300.743 302.273L301.612 319.118C301.716 321.166 300.143 322.825 298.096 322.825Z" fill="white"/>
<path opacity="0.3" d="M262.988 289.315H215.11C213.062 289.315 211.318 287.656 211.212 285.608L211.027 282.032C210.922 279.985 212.496 278.326 214.543 278.326H262.422C264.469 278.326 266.214 279.985 266.32 282.032L266.504 285.608C266.609 287.656 265.036 289.315 262.988 289.315Z" fill="black"/>
<path opacity="0.3" d="M280.793 403.568H209.08C205.594 403.568 202.621 400.742 202.442 397.256L202.016 388.986C201.836 385.5 204.517 382.674 208.003 382.674H279.716C283.202 382.674 286.175 385.5 286.354 388.986L286.78 397.256C286.96 400.742 284.279 403.568 280.793 403.568Z" fill="black"/>
<path d="M300.188 363.428H185.548C183.5 363.428 181.756 361.769 181.65 359.722L180.782 342.876C180.677 340.829 182.251 339.169 184.298 339.169H298.939C300.986 339.169 302.731 340.829 302.837 342.876L303.706 359.722C303.809 361.769 302.236 363.428 300.188 363.428Z" fill="white"/>
<path d="M198.034 310.696C198.15 312.962 196.408 314.798 194.142 314.798C191.876 314.798 189.944 312.961 189.827 310.696C189.71 308.43 191.453 306.593 193.718 306.593C195.984 306.593 197.916 308.43 198.034 310.696Z" fill="#263238"/>
<path d="M210.642 310.696C210.758 312.962 209.016 314.798 206.75 314.798C204.485 314.798 202.553 312.961 202.435 310.696C202.319 308.43 204.061 306.593 206.327 306.593C208.592 306.593 210.526 308.43 210.642 310.696Z" fill="#263238"/>
<path d="M223.25 310.696C223.367 312.962 221.624 314.798 219.359 314.798C217.093 314.798 215.161 312.961 215.044 310.696C214.927 308.43 216.67 306.593 218.935 306.593C221.201 306.593 223.134 308.43 223.25 310.696Z" fill="#263238"/>
<path d="M235.859 310.696C235.975 312.962 234.233 314.798 231.967 314.798C229.702 314.798 227.77 312.961 227.652 310.696C227.536 308.43 229.278 306.593 231.544 306.593C233.81 306.593 235.742 308.43 235.859 310.696Z" fill="#263238"/>
<path d="M200.125 351.299C200.242 353.566 198.499 355.402 196.234 355.402C193.968 355.402 192.036 353.564 191.918 351.299C191.802 349.033 193.544 347.196 195.81 347.196C198.076 347.196 200.009 349.032 200.125 351.299Z" fill="#263238"/>
<path d="M212.735 351.299C212.851 353.566 211.109 355.402 208.843 355.402C206.576 355.402 204.646 353.564 204.528 351.299C204.412 349.033 206.154 347.196 208.42 347.196C210.685 347.196 212.617 349.032 212.735 351.299Z" fill="#263238"/>
<path d="M225.343 351.299C225.46 353.566 223.717 355.402 221.452 355.402C219.186 355.402 217.254 353.564 217.136 351.299C217.02 349.033 218.762 347.196 221.028 347.196C223.295 347.195 225.227 349.032 225.343 351.299Z" fill="#263238"/>
<path d="M237.952 351.299C238.068 353.566 236.326 355.402 234.06 355.402C231.794 355.402 229.862 353.564 229.745 351.299C229.628 349.033 231.371 347.196 233.636 347.196C235.903 347.195 237.835 349.032 237.952 351.299Z" fill="#263238"/>
<path d="M250.56 351.299C250.676 353.566 248.934 355.402 246.668 355.402C244.403 355.402 242.471 353.564 242.353 351.299C242.237 349.033 243.979 347.196 246.245 347.196C248.51 347.196 250.444 349.032 250.56 351.299Z" fill="#263238"/>
<path d="M263.17 351.299C263.286 353.566 261.544 355.402 259.278 355.402C257.011 355.402 255.08 353.564 254.963 351.299C254.846 349.033 256.589 347.196 258.854 347.196C261.12 347.196 263.052 349.032 263.17 351.299Z" fill="#263238"/>
<path d="M399.637 211.949C399.938 212.394 400.091 212.639 400.289 212.959L400.825 213.857C401.173 214.451 401.478 215.044 401.785 215.636C402.385 216.823 402.953 218.01 403.46 219.211C404.489 221.61 405.332 224.062 406.061 226.529C407.54 231.46 408.443 236.514 408.906 241.571L408.998 242.518C409.015 242.653 409.027 242.868 409.037 243.09L409.063 243.736C409.079 244.588 409.037 245.432 408.918 246.23C408.692 247.84 408.259 249.325 407.728 250.699C406.649 253.435 405.167 255.76 403.577 257.875C400.322 262.088 396.628 265.46 392.406 268.45L389.101 264.577C392.066 261.148 394.94 257.346 397.069 253.55C398.155 251.658 398.986 249.706 399.503 247.886C399.745 246.977 399.876 246.102 399.896 245.314C399.924 244.915 399.895 244.547 399.857 244.198L399.821 243.941C399.812 243.863 399.803 243.776 399.772 243.614L399.62 242.77C398.836 238.265 397.764 233.84 396.359 229.565C395.669 227.422 394.816 225.35 393.95 223.316C393.522 222.295 393.049 221.305 392.564 220.338L391.819 218.928L391.45 218.26L391.145 217.736L399.637 211.949Z" fill="#803E3C"/>
<path d="M388.435 268.528L392.78 277.702L396.226 269.944C396.226 269.944 393.172 263.224 389.039 263.838L388.435 268.528Z" fill="#7F3E3B"/>
<path d="M395.894 278.158L399.344 272.5L396.227 269.945L392.78 277.703L395.894 278.158Z" fill="#7F3E3B"/>
<path d="M376.361 489.86C377.29 489.86 378.305 489.668 379.015 489.5C379.108 489.479 379.178 489.403 379.195 489.311C379.212 489.217 379.171 489.122 379.092 489.071C378.748 488.844 375.695 486.874 374.526 487.403C374.341 487.487 374.108 487.67 374.052 488.072C373.976 488.605 374.11 489.031 374.447 489.338C374.874 489.728 375.588 489.86 376.361 489.86ZM378.342 489.161C376.592 489.511 375.276 489.45 374.767 488.986C374.55 488.789 374.471 488.51 374.524 488.138C374.551 487.938 374.645 487.871 374.722 487.837C375.338 487.553 377.098 488.408 378.342 489.161Z" fill="#407BFF"/>
<path d="M378.96 489.506C379.001 489.506 379.043 489.496 379.08 489.474C379.153 489.431 379.199 489.353 379.199 489.269C379.199 489.145 379.186 486.252 378.092 485.285C377.802 485.027 377.462 484.92 377.084 484.967C376.488 485.039 376.326 485.414 376.283 485.63C376.056 486.763 377.884 488.932 378.842 489.475C378.88 489.497 378.92 489.506 378.96 489.506ZM377.25 485.432C377.446 485.432 377.618 485.501 377.777 485.641C378.428 486.22 378.653 487.843 378.708 488.807C377.753 488.044 376.613 486.415 376.751 485.724C376.774 485.611 376.838 485.476 377.142 485.44C377.179 485.435 377.215 485.432 377.25 485.432Z" fill="#407BFF"/>
<path d="M365.028 484.964C365.084 484.903 365.106 484.817 365.081 484.735C365.052 484.638 364.966 484.571 364.865 484.565C364.367 484.541 360.053 484.361 359.082 485.412C359.06 485.435 359.041 485.459 359.023 485.483C358.861 485.701 358.826 485.958 358.921 486.227C359.081 486.676 359.376 486.97 359.796 487.1C361.193 487.534 363.652 485.968 364.993 484.996C365.006 484.986 365.017 484.975 365.028 484.964ZM359.441 485.725C359.976 485.146 362.35 484.988 364.133 485.018C362.263 486.286 360.72 486.889 359.938 486.647C359.664 486.562 359.478 486.372 359.37 486.068C359.328 485.951 359.339 485.857 359.405 485.768C359.416 485.753 359.428 485.738 359.441 485.725Z" fill="#407BFF"/>
<path d="M365.028 484.964C365.04 484.952 365.05 484.938 365.059 484.922C365.101 484.849 365.102 484.76 365.062 484.686C365.005 484.585 363.664 482.225 362.076 481.796C361.59 481.666 361.129 481.724 360.706 481.974C360.134 482.309 360.102 482.695 360.174 482.958C360.481 484.07 363.541 485.05 364.855 485.041C364.921 485.04 364.984 485.011 365.028 484.964ZM360.719 482.558C360.768 482.506 360.84 482.447 360.947 482.384C361.26 482.201 361.588 482.159 361.951 482.256C362.994 482.537 363.976 483.871 364.41 484.538C362.992 484.376 360.816 483.499 360.632 482.832C360.622 482.791 360.595 482.693 360.719 482.558Z" fill="#407BFF"/>
<path d="M378.239 176.796C377.07 182.76 374.443 195.772 378.616 199.752C378.616 199.752 376.985 205.802 365.903 205.802C353.717 205.802 360.079 199.753 360.079 199.753C366.731 198.164 366.559 193.23 365.4 188.596L378.239 176.796Z" fill="#7F3E3B"/>
<path d="M357.93 162.73C358.002 162.73 358.074 162.713 358.142 162.679C358.378 162.562 358.472 162.276 358.355 162.04C357.175 159.685 354.994 159.412 354.901 159.401C354.641 159.37 354.404 159.559 354.374 159.821C354.344 160.081 354.532 160.316 354.791 160.348C354.863 160.356 356.561 160.588 357.503 162.467C357.588 162.634 357.756 162.73 357.93 162.73Z" fill="#263238"/>
<path d="M354.296 167.942C354.296 167.942 352.502 171.238 350.792 172.723C351.732 173.846 353.594 173.616 353.594 173.616L354.296 167.942Z" fill="#630F0F"/>
<path d="M355.188 166.649C355.088 167.454 354.582 168.053 354.055 167.988C353.53 167.923 353.184 167.218 353.284 166.414C353.383 165.608 353.89 165.01 354.416 165.074C354.941 165.139 355.288 165.844 355.188 166.649Z" fill="#263238"/>
<path d="M354.642 165.148L352.778 164.352C352.778 164.352 353.584 165.983 354.642 165.148Z" fill="#263238"/>
<path d="M375.619 482.684L365.831 484.97L359.882 462.456L369.671 460.17L375.619 482.684Z" fill="#7F3E3B"/>
<path d="M390.649 489.269H380.598L381.386 465.992H391.438L390.649 489.269Z" fill="#7F3E3B"/>
<path d="M379.801 488.105H391.093C391.504 488.105 391.837 488.39 391.895 488.791L393.181 497.725C393.314 498.652 392.518 499.529 391.57 499.513C387.632 499.446 385.735 499.214 380.77 499.214C377.714 499.214 373.25 499.531 369.032 499.531C364.906 499.531 364.589 495.359 366.346 494.982C374.222 493.288 375.467 490.951 378.121 488.723C378.6 488.322 379.2 488.105 379.801 488.105Z" fill="#263238"/>
<path d="M364.963 483.47L375.222 478.751C375.595 478.579 376.018 478.699 376.237 479.039L381.14 486.618C381.649 487.404 381.292 488.534 380.423 488.915C376.818 490.499 374.998 491.082 370.486 493.157C367.71 494.434 362.101 497.363 358.268 499.126C354.52 500.85 352.488 497.192 353.926 496.115C360.374 491.284 362.214 487.866 363.694 484.732C363.962 484.169 364.417 483.722 364.963 483.47Z" fill="#263238"/>
<path opacity="0.2" d="M359.886 462.461L363.071 474.523L372.743 471.78L369.679 460.174L359.886 462.461Z" fill="black"/>
<path opacity="0.2" d="M391.44 465.998H381.384L380.983 477.997H391.038L391.44 465.998Z" fill="black"/>
<path d="M395.952 202.036C400.128 202.951 404.587 217.973 404.587 217.973L392.78 230.526C392.78 230.526 382.985 216.418 384.98 211.23C387.059 205.826 391.016 200.954 395.952 202.036Z" fill="#263238"/>
<path opacity="0.4" d="M389.333 211.596C387.221 209.664 385.793 210.24 384.821 211.776C383.861 216.24 389.549 225.588 391.841 229.128C392.897 224.904 394.109 215.988 389.333 211.596Z" fill="black"/>
<path d="M343.088 202.327C343.088 202.327 338.3 204.013 347.892 262.993C364.091 262.993 380.833 262.993 388.715 262.993C388.03 246.378 388.01 236.134 395.951 202.036C395.951 202.036 387.397 200.174 378.616 199.752C371.746 199.421 366.118 199.201 360.078 199.753C352.117 200.479 343.088 202.327 343.088 202.327Z" fill="#263238"/>
<path opacity="0.4" d="M342.725 224.964C342.989 227.832 343.337 231.06 343.793 234.708C347.136 231.697 349.868 223.134 348.869 218.137C346.529 219.876 344.369 222.564 342.725 224.964Z" fill="black"/>
<path d="M347.082 216.023C344.861 221.633 342.414 226.964 339.662 232.289C336.914 237.606 333.98 242.831 330.08 247.883L329.314 248.827L328.93 249.299C328.799 249.457 328.694 249.598 328.482 249.815C327.74 250.634 326.935 251.335 326.112 251.923C324.46 253.102 322.751 253.852 321.095 254.429C317.778 255.545 314.572 255.94 311.447 256.128C305.174 256.382 299.24 255.8 293.256 254.513L293.922 249.466C296.68 249.48 299.573 249.419 302.362 249.242C305.165 249.096 307.939 248.796 310.601 248.322C313.256 247.877 315.824 247.2 317.968 246.268C319.025 245.794 319.944 245.226 320.62 244.651C320.96 244.366 321.227 244.072 321.44 243.792C321.485 243.751 321.593 243.593 321.684 243.464L321.965 243.068L322.526 242.28C325.483 237.906 328.079 232.824 330.558 227.744C332.993 222.641 335.342 217.35 337.547 212.186L347.082 216.023Z" fill="#803E3C"/>
<path d="M343.088 202.327C338.093 203.545 331.945 217.261 331.945 217.261L342.316 232.495C342.316 232.495 356.122 215.116 354.48 209.804C352.769 204.274 349.15 200.849 343.088 202.327Z" fill="#263238"/>
<path d="M296.797 250.214L288.148 246.221L287.278 254.819C287.278 254.819 294.506 256.946 298.072 254.766L296.797 250.214Z" fill="#7F3E3B"/>
<path d="M282.967 245.352L282.142 251.9L287.279 254.82L288.148 246.221L282.967 245.352Z" fill="#7F3E3B"/>
<path d="M382.583 167.233C380.753 177.04 380.189 181.23 374.57 185.684C366.119 192.385 354.474 187.993 353.336 177.838C352.313 168.696 355.476 154.195 365.635 151.459C375.644 148.764 384.412 157.427 382.583 167.233Z" fill="#7F3E3B"/>
<path d="M361.042 169.3C360.481 174.3 360.265 187.291 371.25 187.699C384.713 188.2 388.742 176.699 387.542 172.099C394.542 166.399 395.555 156.599 387.684 149.099C379.813 141.599 362.484 145.792 357.642 153.098C351.642 162.156 361.042 169.3 361.042 169.3Z" fill="#263238"/>
<path d="M374.521 152.014C373.871 146.74 374.376 143.1 379.309 143.1C384.242 143.1 390.992 144.892 393.467 149.946C395.942 155 396.142 162.9 389.242 162.1C382.342 161.3 375.3 158.327 374.521 152.014Z" fill="#407BFF"/>
<path d="M382.172 150.746C380.996 144.455 386.602 126.751 400.276 125.6C406.609 125.066 409.542 131.884 406.225 133.007C412.208 132.934 416.065 140.866 410.468 142.06C414.893 144.886 413.791 150.701 407.491 153.551C402.847 155.651 383.8 159.452 382.172 150.746Z" fill="#263238"/>
<path d="M396.78 157.502C392.381 157.502 387.78 156.856 384.93 154.948C383.2 153.788 382.25 152.252 382.109 150.38C382.097 150.215 382.22 150.071 382.385 150.059C382.56 150.046 382.694 150.17 382.708 150.335C382.834 152.014 383.694 153.397 385.264 154.448C390.694 158.084 403.243 156.907 407.177 155.623C410.56 154.519 412.85 152.38 413.305 149.9C413.639 148.081 412.925 146.358 411.296 145.046C411.168 144.942 411.146 144.754 411.251 144.624C411.354 144.494 411.544 144.475 411.673 144.578C413.455 146.014 414.265 147.992 413.897 150.008C413.402 152.708 410.96 155.021 407.365 156.194C405.304 156.866 401.141 157.502 396.78 157.502Z" fill="#263238"/>
<path d="M357.979 167.975C356.774 169.644 356.428 171.719 356.694 173.393C357.094 175.909 359.548 176.077 361.324 174.463C362.922 173.011 364.642 169.951 363.332 167.866C362.042 165.809 359.358 166.067 357.979 167.975Z" fill="#7F3E3B"/>
<path d="M358.673 262.993C358.673 262.993 364.506 331.982 370.559 370.864C375.448 402.268 379.302 475.674 379.302 475.674H393.008C393.008 475.674 397.884 404.461 395.402 373.4C389.123 294.803 403.126 288.401 388.715 262.993H358.673Z" fill="#407BFF"/>
<path opacity="0.4" d="M375.928 289.068C370.396 294.72 366.184 301.476 362.98 308.604C364.576 324.108 366.472 341.316 368.488 356.388C374.728 340.632 380.069 316.392 375.928 289.068Z" fill="black"/>
<path d="M349.079 262.558C349.079 262.558 336.425 337.904 334.424 371.867C339.395 403.272 359.724 469.65 359.724 469.65L372.192 465.133C372.192 465.133 365.294 392.75 357.752 372.934C374.636 316.087 387.044 301.72 383.435 262.993C374.824 262.993 349.079 262.558 349.079 262.558Z" fill="#407BFF"/>
<path d="M358.051 472.967L374.899 468.392L373.945 461.676L355.906 466.554L358.051 472.967Z" fill="#263238"/>
<path d="M377.426 475.945H394.885L395.802 469.82L377.327 469.195L377.426 475.945Z" fill="#263238"/>
<path d="M389.327 260.597L391.168 264.251C391.31 264.534 390.974 264.823 390.503 264.823H347.69C347.322 264.823 347.017 264.643 346.994 264.412L346.626 260.758C346.601 260.504 346.92 260.29 347.322 260.29H388.661C388.966 260.291 389.234 260.414 389.327 260.597Z" fill="#407BFF"/>
<path opacity="0.5" d="M389.327 260.597L391.168 264.251C391.31 264.534 390.974 264.823 390.503 264.823H347.69C347.322 264.823 347.017 264.643 346.994 264.412L346.626 260.758C346.601 260.504 346.92 260.29 347.322 260.29H388.661C388.966 260.291 389.234 260.414 389.327 260.597Z" fill="black"/>
<path d="M383.774 265.219H384.882C385.103 265.219 385.271 265.105 385.255 264.966L384.736 260.219C384.72 260.08 384.528 259.967 384.307 259.967H383.2C382.979 259.967 382.811 260.081 382.826 260.219L383.346 264.966C383.36 265.106 383.554 265.219 383.774 265.219Z" fill="#407BFF"/>
<path d="M368.912 230.25C368.642 230.25 368.404 230.069 368.334 229.807C364.418 215.342 356.281 203.446 352.4 201.611C351.966 201.406 351.606 201.347 351.389 201.444C351.084 201.581 350.731 201.445 350.594 201.143C350.459 200.84 350.593 200.485 350.894 200.35C351.455 200.096 352.133 200.156 352.913 200.525C357.055 202.483 365.263 214.244 369.37 229.046C372.312 229.009 376.852 228.642 377.946 228.55C379.318 226.92 389.381 214.343 385.615 200.584C385.528 200.264 385.716 199.934 386.036 199.847C386.353 199.759 386.686 199.946 386.773 200.267C390.964 215.581 378.811 229.388 378.689 229.526C378.587 229.64 378.445 229.711 378.294 229.724C378.234 229.73 372.25 230.25 368.912 230.25Z" fill="#407BFF"/>
<path d="M388.79 238.733C382.249 226.471 379.574 225.614 378.404 221.672C378.404 221.672 379.458 218.696 382.134 215.683C381.331 215.46 379.633 215.12 378.568 214.915C378.689 214.379 378.812 213.848 378.934 213.34C378.049 213.094 376.214 213.347 375.276 213.504L375.234 212.294C375.234 212.294 371.917 211.628 370.584 211.999C370.717 212.557 370.852 213.138 370.986 213.727C369.818 213.953 367.956 214.325 367.076 214.57C369.624 217.439 370.543 220.502 370.741 221.258C367.218 227.312 353.51 266.27 375.8 269.2C398.104 272.13 395.33 250.994 388.79 238.733Z" fill="#407BFF"/>
<path opacity="0.4" d="M388.79 238.733C382.249 226.471 379.574 225.614 378.404 221.672C378.404 221.672 379.458 218.696 382.134 215.683C381.331 215.46 379.633 215.12 378.568 214.915C378.689 214.379 378.812 213.848 378.934 213.34C378.049 213.094 376.214 213.347 375.276 213.504L375.234 212.294C375.234 212.294 371.917 211.628 370.584 211.999C370.717 212.557 370.852 213.138 370.986 213.727C369.818 213.953 367.956 214.325 367.076 214.57C369.624 217.439 370.543 220.502 370.741 221.258C367.218 227.312 353.51 266.27 375.8 269.2C398.104 272.13 395.33 250.994 388.79 238.733Z" fill="white"/>
<path d="M369.908 220.098C369.743 220.396 369.758 221.524 369.733 221.974C369.708 222.424 370.908 222.724 372.258 222.848C373.608 222.973 379.183 223.199 379.008 222.574C378.833 221.948 379.283 221.099 379.308 220.573C379.333 220.048 377.083 220.024 375.208 220.098C373.332 220.172 370.284 219.422 369.908 220.098Z" fill="#407BFF"/>
<path d="M356.938 265.219H358.045C358.266 265.219 358.434 265.105 358.418 264.966L357.899 260.219C357.883 260.08 357.691 259.967 357.47 259.967H356.363C356.142 259.967 355.974 260.081 355.99 260.219L356.509 264.966C356.525 265.106 356.717 265.219 356.938 265.219Z" fill="#407BFF"/>
</svg>
