<svg width="35" height="35" viewBox="0 0 35 35" fill="none" xmlns="http://www.w3.org/2000/svg">
<path d="M17.8499 5.74C24.0274 5.74 29.1024 10.3075 29.9599 16.24L33.5999 16.24L27.4749 23.24L21.3499 16.24L25.4099 16.24C25.0184 14.5269 24.0577 12.9972 22.6846 11.9006C21.3115 10.8041 19.6071 10.2054 17.8499 10.2025C15.3124 10.2025 13.0724 11.445 11.6549 13.3175L8.6624 9.905C9.8078 8.59522 11.2203 7.54585 12.8051 6.82745C14.3898 6.10904 16.1099 5.73825 17.8499 5.74ZM17.1499 29.26C10.9899 29.26 5.8974 24.6925 5.0399 18.76L1.3999 18.76L7.5249 11.76C9.5724 14.0875 11.6024 16.4325 13.6499 18.76L9.5899 18.76C9.98141 20.4731 10.9422 22.0028 12.3153 23.0994C13.6884 24.1959 15.3927 24.7946 17.1499 24.7975C19.6874 24.7975 21.9274 23.555 23.3449 21.6825L26.3374 25.095C25.1931 26.4061 23.7808 27.4564 22.1958 28.1749C20.6108 28.8934 18.8901 29.2635 17.1499 29.26Z" fill="#7BFF40"/>
</svg>
